<svg width="120" height="101" viewBox="0 0 120 101" fill="none" xmlns="http://www.w3.org/2000/svg">
<circle cx="60" cy="49" r="44" fill="#EFFFFE"/>
<path fillRule="evenodd" clipRule="evenodd" d="M38 54.3778V49.2145L59.9995 62.1227L68.7997 56.9594V62.1227L59.9995 67.2859L38 54.3778ZM51.1993 46.6329L59.9995 41.4696L82 54.3778V59.541L68.7997 51.7961L59.9995 56.9594L51.1993 51.7961L38 44.0512V38.888L51.1993 46.6329ZM55.5994 49.2145L59.9995 51.7961L64.3996 49.2145L59.9995 46.6329L55.5994 49.2145ZM82 44.0512V49.2145L59.9995 36.3063L51.1993 41.4696V36.3063L59.9995 31.1431L82 44.0512Z" fill="url(#paint0_linear_987_11895)"/>
<path fillRule="evenodd" clipRule="evenodd" d="M38 54.3778V49.2145L59.9995 62.1227L68.7997 56.9594V62.1227L59.9995 67.2859L38 54.3778ZM51.1993 46.6329L59.9995 41.4696L82 54.3778V59.541L68.7997 51.7961L59.9995 56.9594L51.1993 51.7961L38 44.0512V38.888L51.1993 46.6329ZM55.5994 49.2145L59.9995 51.7961L64.3996 49.2145L59.9995 46.6329L55.5994 49.2145ZM82 44.0512V49.2145L59.9995 36.3063L51.1993 41.4696V36.3063L59.9995 31.1431L82 44.0512Z" fill="url(#paint1_linear_987_11895)"/>
<defs>
<linearGradient id="paint0_linear_987_11895" x1="60" y1="31.1431" x2="60" y2="67.2859" gradientUnits="userSpaceOnUse">
<stop stop-color="#56C3BA"/>
<stop offset="0.391" stop-color="#00847A"/>
</linearGradient>
<linearGradient id="paint1_linear_987_11895" x1="60" y1="31.1431" x2="60" y2="67.2859" gradientUnits="userSpaceOnUse">
<stop offset="0.000999756" stop-color="#07CDBE"/>
<stop offset="0.671" stop-color="#00847A"/>
<stop offset="1" stop-color="#024B46"/>
</linearGradient>
</defs>
</svg>